<?xml version="1.0" standalone="no"?><svg xmlns="http://www.w3.org/2000/svg" viewBox="0 0 1440 320"><path fill="#228B22" fill-opacity="1" d="M0,192L40,202.7C80,213,160,235,240,218.7C320,203,400,149,480,149.3C560,149,640,203,720,234.7C800,267,880,277,960,261.3C1040,245,1120,203,1200,186.7C1280,171,1360,181,1400,186.7L1440,192L1440,320L1400,320C1360,320,1280,320,1200,320C1120,320,1040,320,960,320C880,320,800,320,720,320C640,320,560,320,480,320C400,320,320,320,240,320C160,320,80,320,40,320L0,320Z"></path></svg>